<svg width="279" height="220" viewBox="0 0 279 220" fill="none" xmlns="http://www.w3.org/2000/svg">
<path d="M278.579 114C278.579 186.902 131.519 220 55.5796 220C-20.3596 220 3.57947 186.902 3.57947 114C3.57947 41.0984 73.6404 15 149.58 15C225.519 15 278.579 41.0984 278.579 114Z" fill="#DABCD7"/>
<path d="M251.605 145.91C251.605 217.782 217.72 173.514 153.488 173.514C89.2559 173.514 19 217.782 19 145.91C19 74.0379 151.848 0 216.08 0C280.312 0 251.605 74.0379 251.605 145.91Z" fill="#B8AEB7"/>
<path d="M105.287 71.0909H100.48C100.446 70.6932 100.355 70.3324 100.207 70.0085C100.065 69.6847 99.8664 69.4062 99.6107 69.1733C99.3607 68.9347 99.0567 68.7528 98.6988 68.6278C98.3408 68.4972 97.9346 68.4318 97.48 68.4318C96.6846 68.4318 96.0113 68.625 95.4602 69.0114C94.9147 69.3977 94.4999 69.9517 94.2158 70.6733C93.9374 71.3949 93.7982 72.2614 93.7982 73.2727C93.7982 74.3409 93.9403 75.2358 94.2244 75.9574C94.5141 76.6733 94.9317 77.2131 95.4772 77.5767C96.0227 77.9347 96.6789 78.1136 97.446 78.1136C97.8835 78.1136 98.2755 78.0597 98.6221 77.9517C98.9687 77.8381 99.2698 77.6761 99.5255 77.4659C99.7812 77.2557 99.9886 77.0028 100.148 76.7074C100.312 76.4062 100.423 76.0682 100.48 75.6932L105.287 75.7273C105.23 76.4659 105.023 77.2187 104.665 77.9858C104.307 78.7472 103.798 79.4517 103.139 80.0994C102.486 80.7415 101.676 81.2585 100.71 81.6506C99.7442 82.0426 98.6221 82.2386 97.3437 82.2386C95.7414 82.2386 94.3039 81.8949 93.0312 81.2074C91.7641 80.5199 90.7613 79.5085 90.0227 78.1733C89.2897 76.8381 88.9232 75.2045 88.9232 73.2727C88.9232 71.3295 89.2982 69.6932 90.0482 68.3636C90.7982 67.0284 91.8096 66.0199 93.0823 65.3381C94.355 64.6506 95.7755 64.3068 97.3437 64.3068C98.446 64.3068 99.4602 64.4574 100.386 64.7585C101.312 65.0597 102.125 65.5 102.824 66.0795C103.523 66.6534 104.085 67.3608 104.511 68.2017C104.937 69.0426 105.196 70.0057 105.287 71.0909ZM109.905 82V68.9091H114.609V82H109.905ZM112.257 67.5455C111.621 67.5455 111.075 67.3352 110.621 66.9148C110.166 66.4943 109.939 65.9886 109.939 65.3977C109.939 64.8068 110.166 64.3011 110.621 63.8807C111.075 63.4602 111.621 63.25 112.257 63.25C112.899 63.25 113.445 63.4602 113.894 63.8807C114.348 64.3011 114.575 64.8068 114.575 65.3977C114.575 65.9886 114.348 66.4943 113.894 66.9148C113.445 67.3352 112.899 67.5455 112.257 67.5455ZM124.111 74.6364V82H119.406V68.9091H123.872V71.3977H124.009C124.293 70.5682 124.793 69.9176 125.509 69.446C126.23 68.9744 127.071 68.7386 128.031 68.7386C128.958 68.7386 129.762 68.9517 130.443 69.3778C131.131 69.7983 131.662 70.3778 132.037 71.1165C132.418 71.8551 132.605 72.6989 132.6 73.6477V82H127.895V74.6364C127.901 73.9886 127.736 73.4801 127.401 73.1108C127.071 72.7415 126.611 72.5568 126.02 72.5568C125.634 72.5568 125.296 72.642 125.006 72.8125C124.722 72.9773 124.503 73.2159 124.35 73.5284C124.196 73.8352 124.117 74.2045 124.111 74.6364ZM145.129 68.9091V72.3182H136.504V68.9091H145.129ZM138.174 65.7727H142.879V77.7898C142.879 77.9716 142.91 78.125 142.973 78.25C143.035 78.3693 143.132 78.4602 143.262 78.5227C143.393 78.5795 143.561 78.608 143.765 78.608C143.907 78.608 144.072 78.5909 144.26 78.5568C144.453 78.5227 144.595 78.4943 144.686 78.4716L145.368 81.7784C145.157 81.8409 144.856 81.9176 144.464 82.0085C144.078 82.0994 143.618 82.1591 143.083 82.1875C142.004 82.2443 141.098 82.1335 140.365 81.8551C139.632 81.571 139.081 81.125 138.711 80.517C138.342 79.9091 138.163 79.1477 138.174 78.233V65.7727ZM154.434 74.6364V82H149.73V64.5455H154.264V71.3977H154.4C154.696 70.5625 155.187 69.9119 155.875 69.446C156.562 68.9744 157.389 68.7386 158.355 68.7386C159.281 68.7386 160.085 68.9489 160.767 69.3693C161.454 69.7898 161.986 70.3693 162.361 71.108C162.741 71.8466 162.929 72.6932 162.923 73.6477V82H158.219V74.6364C158.224 73.9886 158.062 73.4801 157.733 73.1108C157.409 72.7415 156.946 72.5568 156.344 72.5568C155.963 72.5568 155.628 72.642 155.338 72.8125C155.054 72.9773 154.832 73.2159 154.673 73.5284C154.52 73.8352 154.44 74.2045 154.434 74.6364ZM167.646 82V68.9091H172.35V82H167.646ZM169.998 67.5455C169.361 67.5455 168.816 67.3352 168.361 66.9148C167.907 66.4943 167.68 65.9886 167.68 65.3977C167.68 64.8068 167.907 64.3011 168.361 63.8807C168.816 63.4602 169.361 63.25 169.998 63.25C170.64 63.25 171.185 63.4602 171.634 63.8807C172.089 64.3011 172.316 64.8068 172.316 65.3977C172.316 65.9886 172.089 66.4943 171.634 66.9148C171.185 67.3352 170.64 67.5455 169.998 67.5455ZM180.795 82.2045C179.96 82.2045 179.221 82.0682 178.579 81.7955C177.943 81.517 177.443 81.0966 177.079 80.5341C176.715 79.9716 176.533 79.2557 176.533 78.3864C176.533 77.6705 176.656 77.0597 176.9 76.554C177.144 76.0426 177.485 75.625 177.923 75.3011C178.36 74.9773 178.869 74.7301 179.448 74.5597C180.033 74.3892 180.664 74.2784 181.34 74.2273C182.073 74.1705 182.661 74.1023 183.104 74.0227C183.553 73.9375 183.877 73.821 184.076 73.6733C184.275 73.5199 184.374 73.3182 184.374 73.0682V73.0341C184.374 72.6932 184.244 72.4318 183.982 72.25C183.721 72.0682 183.386 71.9773 182.977 71.9773C182.528 71.9773 182.161 72.0767 181.877 72.2756C181.599 72.4687 181.431 72.767 181.374 73.1705H177.045C177.102 72.375 177.354 71.642 177.803 70.9716C178.258 70.2955 178.92 69.7557 179.789 69.3523C180.658 68.9432 181.744 68.7386 183.045 68.7386C183.982 68.7386 184.823 68.8494 185.568 69.071C186.312 69.2869 186.945 69.5909 187.468 69.983C187.991 70.3693 188.389 70.8239 188.661 71.3466C188.94 71.8636 189.079 72.4261 189.079 73.0341V82H184.681V80.1591H184.579C184.318 80.6477 183.999 81.0426 183.624 81.3438C183.255 81.6449 182.832 81.8636 182.354 82C181.883 82.1364 181.363 82.2045 180.795 82.2045ZM182.329 79.2386C182.687 79.2386 183.022 79.1648 183.335 79.017C183.653 78.8693 183.911 78.6562 184.11 78.3778C184.309 78.0994 184.408 77.7614 184.408 77.3636V76.2727C184.283 76.3239 184.15 76.3722 184.008 76.4176C183.872 76.4631 183.724 76.5057 183.565 76.5455C183.411 76.5852 183.247 76.6222 183.07 76.6562C182.9 76.6903 182.721 76.7216 182.533 76.75C182.17 76.8068 181.872 76.9006 181.639 77.0312C181.411 77.1562 181.241 77.3125 181.127 77.5C181.019 77.6818 180.965 77.8864 180.965 78.1136C180.965 78.4773 181.093 78.7557 181.349 78.9489C181.604 79.142 181.931 79.2386 182.329 79.2386ZM68.7203 152V134.545H76.2544C77.5499 134.545 78.6834 134.781 79.655 135.253C80.6266 135.724 81.3822 136.403 81.922 137.29C82.4618 138.176 82.7317 139.239 82.7317 140.477C82.7317 141.727 82.4533 142.781 81.8965 143.639C81.3453 144.497 80.5697 145.145 79.5697 145.582C78.5754 146.02 77.4135 146.239 76.084 146.239H71.584V142.557H75.1294C75.6862 142.557 76.1607 142.489 76.5527 142.352C76.9504 142.21 77.2544 141.986 77.4646 141.679C77.6805 141.372 77.7885 140.972 77.7885 140.477C77.7885 139.977 77.6805 139.571 77.4646 139.259C77.2544 138.94 76.9504 138.707 76.5527 138.56C76.1607 138.406 75.6862 138.33 75.1294 138.33H73.459V152H68.7203ZM78.9476 143.989L83.3112 152H78.1635L73.9021 143.989H78.9476ZM93.2453 152.239C91.8249 152.239 90.609 151.957 89.5976 151.395C88.5862 150.827 87.8107 150.037 87.2709 149.026C86.7311 148.009 86.4612 146.83 86.4612 145.489C86.4612 144.148 86.7311 142.972 87.2709 141.96C87.8107 140.943 88.5862 140.153 89.5976 139.591C90.609 139.023 91.8249 138.739 93.2453 138.739C94.6658 138.739 95.8817 139.023 96.893 139.591C97.9044 140.153 98.68 140.943 99.2197 141.96C99.7595 142.972 100.029 144.148 100.029 145.489C100.029 146.83 99.7595 148.009 99.2197 149.026C98.68 150.037 97.9044 150.827 96.893 151.395C95.8817 151.957 94.6658 152.239 93.2453 152.239ZM93.2794 148.761C93.6771 148.761 94.0209 148.628 94.3107 148.361C94.6004 148.094 94.8249 147.713 94.984 147.219C95.143 146.724 95.2226 146.136 95.2226 145.455C95.2226 144.767 95.143 144.179 94.984 143.69C94.8249 143.196 94.6004 142.815 94.3107 142.548C94.0209 142.281 93.6771 142.148 93.2794 142.148C92.859 142.148 92.4982 142.281 92.197 142.548C91.8959 142.815 91.6658 143.196 91.5067 143.69C91.3476 144.179 91.268 144.767 91.268 145.455C91.268 146.136 91.3476 146.724 91.5067 147.219C91.6658 147.713 91.8959 148.094 92.197 148.361C92.4982 148.628 92.859 148.761 93.2794 148.761ZM109.077 152.17C108.145 152.17 107.287 151.926 106.503 151.438C105.725 150.949 105.1 150.207 104.628 149.213C104.162 148.219 103.929 146.966 103.929 145.455C103.929 143.875 104.174 142.591 104.662 141.602C105.157 140.614 105.793 139.889 106.571 139.429C107.356 138.969 108.179 138.739 109.043 138.739C109.691 138.739 110.259 138.852 110.748 139.08C111.236 139.301 111.645 139.599 111.975 139.974C112.304 140.344 112.554 140.75 112.725 141.193H112.793V134.545H117.498V152H112.827V149.852H112.725C112.543 150.295 112.282 150.693 111.941 151.045C111.606 151.392 111.196 151.668 110.713 151.872C110.236 152.071 109.691 152.17 109.077 152.17ZM110.816 148.557C111.248 148.557 111.617 148.432 111.924 148.182C112.236 147.926 112.475 147.568 112.64 147.108C112.81 146.642 112.895 146.091 112.895 145.455C112.895 144.807 112.81 144.253 112.64 143.793C112.475 143.327 112.236 142.972 111.924 142.727C111.617 142.477 111.248 142.352 110.816 142.352C110.384 142.352 110.015 142.477 109.708 142.727C109.407 142.972 109.174 143.327 109.009 143.793C108.85 144.253 108.77 144.807 108.77 145.455C108.77 146.102 108.85 146.659 109.009 147.125C109.174 147.585 109.407 147.94 109.708 148.19C110.015 148.435 110.384 148.557 110.816 148.557ZM122.207 152V138.909H126.775V141.398H126.912C127.15 140.477 127.528 139.804 128.045 139.378C128.568 138.952 129.179 138.739 129.878 138.739C130.082 138.739 130.284 138.756 130.483 138.79C130.687 138.818 130.883 138.861 131.071 138.918V142.932C130.838 142.852 130.551 142.793 130.21 142.753C129.869 142.713 129.577 142.693 129.332 142.693C128.872 142.693 128.457 142.798 128.088 143.009C127.724 143.213 127.437 143.503 127.227 143.878C127.017 144.247 126.912 144.682 126.912 145.182V152H122.207ZM135.013 152V138.909H139.718V152H135.013ZM137.366 137.545C136.729 137.545 136.184 137.335 135.729 136.915C135.275 136.494 135.048 135.989 135.048 135.398C135.048 134.807 135.275 134.301 135.729 133.881C136.184 133.46 136.729 133.25 137.366 133.25C138.008 133.25 138.553 133.46 139.002 133.881C139.457 134.301 139.684 134.807 139.684 135.398C139.684 135.989 139.457 136.494 139.002 136.915C138.553 137.335 138.008 137.545 137.366 137.545ZM150.822 157.182C149.509 157.182 148.384 156.994 147.447 156.619C146.515 156.25 145.791 155.739 145.274 155.085C144.762 154.438 144.475 153.693 144.413 152.852H148.947C148.992 153.131 149.106 153.355 149.288 153.526C149.47 153.696 149.703 153.818 149.987 153.892C150.276 153.972 150.6 154.011 150.958 154.011C151.566 154.011 152.069 153.864 152.467 153.568C152.87 153.273 153.072 152.739 153.072 151.966V149.75H152.936C152.765 150.193 152.504 150.571 152.151 150.884C151.799 151.19 151.376 151.426 150.882 151.591C150.387 151.75 149.845 151.83 149.254 151.83C148.322 151.83 147.464 151.614 146.68 151.182C145.901 150.75 145.276 150.065 144.805 149.128C144.339 148.19 144.106 146.966 144.106 145.455C144.106 143.875 144.35 142.591 144.839 141.602C145.333 140.614 145.97 139.889 146.748 139.429C147.532 138.969 148.356 138.739 149.22 138.739C149.867 138.739 150.436 138.852 150.924 139.08C151.413 139.301 151.822 139.599 152.151 139.974C152.481 140.344 152.731 140.75 152.901 141.193H153.004V138.909H157.708V151.966C157.708 153.074 157.421 154.014 156.847 154.787C156.279 155.565 155.478 156.159 154.444 156.568C153.41 156.977 152.203 157.182 150.822 157.182ZM150.992 148.489C151.424 148.489 151.793 148.369 152.1 148.131C152.413 147.886 152.651 147.54 152.816 147.091C152.987 146.636 153.072 146.091 153.072 145.455C153.072 144.807 152.987 144.253 152.816 143.793C152.651 143.327 152.413 142.972 152.1 142.727C151.793 142.477 151.424 142.352 150.992 142.352C150.561 142.352 150.191 142.477 149.884 142.727C149.583 142.972 149.35 143.327 149.186 143.793C149.026 144.253 148.947 144.807 148.947 145.455C148.947 146.102 149.026 146.653 149.186 147.108C149.35 147.557 149.583 147.901 149.884 148.139C150.191 148.372 150.561 148.489 150.992 148.489ZM170.99 146.273V138.909H175.694V152H171.228V149.511H171.092C170.808 150.347 170.311 151 169.6 151.472C168.89 151.937 168.046 152.17 167.069 152.17C166.154 152.17 165.353 151.96 164.666 151.54C163.984 151.119 163.453 150.54 163.072 149.801C162.697 149.062 162.507 148.216 162.501 147.261V138.909H167.206V146.273C167.211 146.92 167.376 147.429 167.7 147.798C168.029 148.168 168.49 148.352 169.081 148.352C169.473 148.352 169.811 148.27 170.095 148.105C170.385 147.935 170.606 147.696 170.76 147.389C170.919 147.077 170.995 146.705 170.99 146.273ZM186.76 152.239C185.362 152.239 184.157 151.972 183.146 151.438C182.14 150.898 181.365 150.125 180.819 149.119C180.28 148.108 180.01 146.898 180.01 145.489C180.01 144.136 180.282 142.955 180.828 141.943C181.373 140.932 182.143 140.145 183.138 139.582C184.132 139.02 185.305 138.739 186.657 138.739C187.646 138.739 188.541 138.892 189.342 139.199C190.143 139.506 190.828 139.952 191.396 140.537C191.964 141.116 192.402 141.821 192.709 142.651C193.015 143.48 193.169 144.415 193.169 145.455V146.545H181.476V143.955H188.839C188.834 143.58 188.737 143.25 188.549 142.966C188.368 142.676 188.12 142.452 187.808 142.293C187.501 142.128 187.152 142.045 186.76 142.045C186.379 142.045 186.03 142.128 185.711 142.293C185.393 142.452 185.138 142.673 184.944 142.957C184.757 143.241 184.657 143.574 184.646 143.955V146.75C184.646 147.17 184.734 147.545 184.91 147.875C185.086 148.205 185.339 148.463 185.669 148.651C185.998 148.838 186.396 148.932 186.862 148.932C187.186 148.932 187.481 148.886 187.748 148.795C188.021 148.705 188.254 148.574 188.447 148.403C188.64 148.227 188.782 148.017 188.873 147.773H193.169C193.021 148.682 192.672 149.472 192.12 150.142C191.569 150.807 190.839 151.324 189.93 151.693C189.027 152.057 187.97 152.239 186.76 152.239ZM209.454 143.17H205.125C205.102 142.903 205.008 142.673 204.844 142.48C204.679 142.287 204.466 142.139 204.204 142.037C203.949 141.929 203.665 141.875 203.352 141.875C202.949 141.875 202.602 141.949 202.312 142.097C202.023 142.244 201.881 142.455 201.886 142.727C201.881 142.92 201.963 143.099 202.133 143.264C202.31 143.429 202.648 143.557 203.148 143.648L205.807 144.125C207.148 144.369 208.145 144.781 208.798 145.361C209.457 145.935 209.79 146.705 209.795 147.67C209.79 148.602 209.511 149.412 208.96 150.099C208.415 150.781 207.667 151.31 206.719 151.685C205.775 152.054 204.699 152.239 203.489 152.239C201.489 152.239 199.923 151.83 198.792 151.011C197.667 150.193 197.04 149.114 196.909 147.773H201.579C201.642 148.187 201.846 148.509 202.193 148.736C202.545 148.957 202.989 149.068 203.523 149.068C203.954 149.068 204.31 148.994 204.588 148.847C204.872 148.699 205.017 148.489 205.023 148.216C205.017 147.966 204.892 147.767 204.648 147.619C204.409 147.472 204.034 147.352 203.523 147.261L201.204 146.852C199.869 146.619 198.869 146.176 198.204 145.523C197.54 144.869 197.21 144.028 197.216 143C197.21 142.091 197.449 141.321 197.932 140.69C198.42 140.054 199.116 139.571 200.02 139.241C200.929 138.906 202.006 138.739 203.25 138.739C205.142 138.739 206.633 139.131 207.724 139.915C208.821 140.699 209.398 141.784 209.454 143.17Z" fill="white"/>
</svg>
