<svg width="279" height="220" viewBox="0 0 279 220" fill="none" xmlns="http://www.w3.org/2000/svg">
<path d="M278.579 114C278.579 186.902 131.519 220 55.5796 220C-20.3596 220 3.57947 186.902 3.57947 114C3.57947 41.0984 73.6404 15 149.58 15C225.519 15 278.579 41.0984 278.579 114Z" fill="#A57FA1"/>
<path d="M251.605 145.91C251.605 217.782 217.72 173.514 153.488 173.514C89.2559 173.514 19 217.782 19 145.91C19 74.0379 151.848 0 216.08 0C280.312 0 251.605 74.0379 251.605 145.91Z" fill="#593556"/>
<path d="M97.5525 71.0909H92.7457C92.7116 70.6932 92.6207 70.3324 92.4729 70.0085C92.3309 69.6847 92.132 69.4062 91.8763 69.1733C91.6263 68.9347 91.3224 68.7528 90.9644 68.6278C90.6065 68.4972 90.2002 68.4318 89.7457 68.4318C88.9502 68.4318 88.2769 68.625 87.7258 69.0114C87.1803 69.3977 86.7656 69.9517 86.4815 70.6733C86.2031 71.3949 86.0638 72.2614 86.0638 73.2727C86.0638 74.3409 86.2059 75.2358 86.49 75.9574C86.7798 76.6733 87.1974 77.2131 87.7428 77.5767C88.2883 77.9347 88.9445 78.1136 89.7116 78.1136C90.1491 78.1136 90.5411 78.0597 90.8877 77.9517C91.2343 77.8381 91.5354 77.6761 91.7911 77.4659C92.0468 77.2557 92.2542 77.0028 92.4133 76.7074C92.5781 76.4062 92.6888 76.0682 92.7457 75.6932L97.5525 75.7273C97.4957 76.4659 97.2883 77.2187 96.9303 77.9858C96.5724 78.7472 96.0638 79.4517 95.4048 80.0994C94.7513 80.7415 93.9417 81.2585 92.9758 81.6506C92.0099 82.0426 90.8877 82.2386 89.6093 82.2386C88.007 82.2386 86.5695 81.8949 85.2968 81.2074C84.0298 80.5199 83.0269 79.5085 82.2883 78.1733C81.5553 76.8381 81.1888 75.2045 81.1888 73.2727C81.1888 71.3295 81.5638 69.6932 82.3138 68.3636C83.0638 67.0284 84.0752 66.0199 85.3479 65.3381C86.6207 64.6506 88.0411 64.3068 89.6093 64.3068C90.7116 64.3068 91.7258 64.4574 92.6519 64.7585C93.5781 65.0597 94.3906 65.5 95.0894 66.0795C95.7883 66.6534 96.3508 67.3608 96.7769 68.2017C97.2031 69.0426 97.4616 70.0057 97.5525 71.0909ZM106.841 64.5455V82H102.102V64.5455H106.841ZM126.589 64.5455V82H122.634L116.328 72.8295H116.225V82H111.487V64.5455H115.509L121.714 73.6818H121.85V64.5455H126.589ZM130.753 68.3636V64.5455H145.924V68.3636H140.674V82H136.003V68.3636H130.753ZM150.107 82V64.5455H154.846V71.3636H161.118V64.5455H165.857V82H161.118V75.1818H154.846V82H150.107ZM175.246 64.5455V82H170.507V64.5455H175.246ZM184.425 82H179.312L185.073 64.5455H191.55L197.312 82H192.198L188.38 69.3523H188.244L184.425 82ZM183.471 75.1136H193.085V78.6591H183.471V75.1136ZM59.2633 152V134.545H66.7974C68.0928 134.545 69.2264 134.781 70.1979 135.253C71.1695 135.724 71.9252 136.403 72.465 137.29C73.0048 138.176 73.2746 139.239 73.2746 140.477C73.2746 141.727 72.9962 142.781 72.4394 143.639C71.8883 144.497 71.1127 145.145 70.1127 145.582C69.1184 146.02 67.9565 146.239 66.6269 146.239H62.1269V142.557H65.6724C66.2292 142.557 66.7036 142.489 67.0957 142.352C67.4934 142.21 67.7974 141.986 68.0076 141.679C68.2235 141.372 68.3315 140.972 68.3315 140.477C68.3315 139.977 68.2235 139.571 68.0076 139.259C67.7974 138.94 67.4934 138.707 67.0957 138.56C66.7036 138.406 66.2292 138.33 65.6724 138.33H64.0019V152H59.2633ZM69.4906 143.989L73.8542 152H68.7065L64.4451 143.989H69.4906ZM94.6036 143.273C94.6036 145.216 94.2258 146.855 93.4701 148.19C92.7144 149.52 91.6945 150.528 90.4104 151.216C89.1264 151.898 87.6945 152.239 86.115 152.239C84.5241 152.239 83.0866 151.895 81.8025 151.207C80.5241 150.514 79.507 149.503 78.7514 148.173C78.0014 146.838 77.6264 145.205 77.6264 143.273C77.6264 141.33 78.0014 139.693 78.7514 138.364C79.507 137.028 80.5241 136.02 81.8025 135.338C83.0866 134.651 84.5241 134.307 86.115 134.307C87.6945 134.307 89.1264 134.651 90.4104 135.338C91.6945 136.02 92.7144 137.028 93.4701 138.364C94.2258 139.693 94.6036 141.33 94.6036 143.273ZM89.7286 143.273C89.7286 142.227 89.5894 141.347 89.311 140.631C89.0383 139.909 88.632 139.364 88.0923 138.994C87.5582 138.619 86.8991 138.432 86.115 138.432C85.3309 138.432 84.669 138.619 84.1292 138.994C83.5951 139.364 83.1889 139.909 82.9104 140.631C82.6377 141.347 82.5014 142.227 82.5014 143.273C82.5014 144.318 82.6377 145.202 82.9104 145.923C83.1889 146.639 83.5951 147.185 84.1292 147.56C84.669 147.929 85.3309 148.114 86.115 148.114C86.8991 148.114 87.5582 147.929 88.0923 147.56C88.632 147.185 89.0383 146.639 89.311 145.923C89.5894 145.202 89.7286 144.318 89.7286 143.273ZM105.912 152H99.1961V134.545H105.844C107.639 134.545 109.19 134.895 110.497 135.594C111.81 136.287 112.821 137.287 113.531 138.594C114.247 139.895 114.605 141.455 114.605 143.273C114.605 145.091 114.25 146.653 113.54 147.96C112.83 149.261 111.824 150.261 110.523 150.96C109.222 151.653 107.685 152 105.912 152ZM103.935 147.977H105.742C106.605 147.977 107.341 147.838 107.949 147.56C108.563 147.281 109.028 146.801 109.347 146.119C109.671 145.437 109.832 144.489 109.832 143.273C109.832 142.057 109.668 141.108 109.338 140.426C109.014 139.744 108.537 139.264 107.906 138.986C107.281 138.707 106.514 138.568 105.605 138.568H103.935V147.977ZM119.198 152V134.545H126.732C128.027 134.545 129.161 134.781 130.132 135.253C131.104 135.724 131.86 136.403 132.399 137.29C132.939 138.176 133.209 139.239 133.209 140.477C133.209 141.727 132.931 142.781 132.374 143.639C131.823 144.497 131.047 145.145 130.047 145.582C129.053 146.02 127.891 146.239 126.561 146.239H122.061V142.557H125.607C126.164 142.557 126.638 142.489 127.03 142.352C127.428 142.21 127.732 141.986 127.942 141.679C128.158 141.372 128.266 140.972 128.266 140.477C128.266 139.977 128.158 139.571 127.942 139.259C127.732 138.94 127.428 138.707 127.03 138.56C126.638 138.406 126.164 138.33 125.607 138.33H123.936V152H119.198ZM129.425 143.989L133.789 152H128.641L124.379 143.989H129.425ZM142.368 134.545V152H137.629V134.545H142.368ZM158.349 140.307C158.275 140.006 158.158 139.741 157.999 139.514C157.84 139.281 157.641 139.085 157.402 138.926C157.17 138.761 156.897 138.639 156.584 138.56C156.277 138.474 155.939 138.432 155.57 138.432C154.775 138.432 154.096 138.622 153.533 139.003C152.976 139.384 152.55 139.932 152.255 140.648C151.965 141.364 151.82 142.227 151.82 143.239C151.82 144.261 151.959 145.136 152.238 145.864C152.516 146.591 152.931 147.148 153.482 147.534C154.033 147.92 154.718 148.114 155.536 148.114C156.258 148.114 156.857 148.009 157.334 147.798C157.817 147.588 158.178 147.29 158.417 146.903C158.655 146.517 158.775 146.062 158.775 145.54L159.593 145.625H155.604V142.25H163.343V144.67C163.343 146.261 163.005 147.622 162.329 148.753C161.658 149.878 160.732 150.741 159.55 151.344C158.374 151.94 157.025 152.239 155.502 152.239C153.803 152.239 152.312 151.878 151.027 151.156C149.743 150.435 148.741 149.406 148.019 148.071C147.303 146.736 146.945 145.148 146.945 143.307C146.945 141.864 147.164 140.585 147.601 139.472C148.045 138.358 148.658 137.418 149.442 136.651C150.226 135.878 151.133 135.295 152.161 134.903C153.189 134.506 154.292 134.307 155.468 134.307C156.502 134.307 157.462 134.455 158.349 134.75C159.241 135.04 160.027 135.455 160.709 135.994C161.397 136.528 161.951 137.162 162.371 137.895C162.792 138.628 163.047 139.432 163.138 140.307H158.349ZM178.282 134.545H183.021V145.727C183.021 147.057 182.702 148.207 182.066 149.179C181.435 150.145 180.555 150.892 179.424 151.42C178.293 151.943 176.981 152.205 175.486 152.205C173.981 152.205 172.663 151.943 171.532 151.42C170.401 150.892 169.521 150.145 168.89 149.179C168.265 148.207 167.952 147.057 167.952 145.727V134.545H172.691V145.318C172.691 145.858 172.81 146.341 173.049 146.767C173.288 147.187 173.617 147.517 174.038 147.756C174.464 147.994 174.947 148.114 175.486 148.114C176.032 148.114 176.515 147.994 176.935 147.756C177.356 147.517 177.685 147.187 177.924 146.767C178.163 146.341 178.282 145.858 178.282 145.318V134.545ZM187.673 152V134.545H200.252V138.364H192.411V141.364H199.604V145.182H192.411V148.182H200.218V152H187.673ZM214.411 140C214.366 139.432 214.153 138.989 213.772 138.67C213.397 138.352 212.826 138.193 212.059 138.193C211.571 138.193 211.17 138.253 210.857 138.372C210.551 138.486 210.323 138.642 210.176 138.841C210.028 139.04 209.951 139.267 209.946 139.523C209.934 139.733 209.971 139.923 210.056 140.094C210.147 140.259 210.289 140.409 210.482 140.545C210.676 140.676 210.923 140.795 211.224 140.903C211.525 141.011 211.883 141.108 212.298 141.193L213.73 141.5C214.696 141.705 215.522 141.974 216.21 142.31C216.897 142.645 217.46 143.04 217.897 143.494C218.335 143.943 218.656 144.449 218.86 145.011C219.071 145.574 219.178 146.187 219.184 146.852C219.178 148 218.892 148.972 218.323 149.767C217.755 150.562 216.943 151.168 215.886 151.582C214.835 151.997 213.571 152.205 212.093 152.205C210.576 152.205 209.252 151.98 208.122 151.531C206.997 151.082 206.122 150.392 205.497 149.46C204.877 148.523 204.565 147.324 204.559 145.864H209.059C209.088 146.398 209.221 146.847 209.46 147.21C209.698 147.574 210.034 147.849 210.465 148.037C210.903 148.224 211.423 148.318 212.025 148.318C212.531 148.318 212.954 148.256 213.295 148.131C213.636 148.006 213.894 147.832 214.071 147.611C214.247 147.389 214.338 147.136 214.343 146.852C214.338 146.585 214.25 146.352 214.079 146.153C213.914 145.949 213.642 145.767 213.261 145.608C212.88 145.443 212.366 145.29 211.718 145.148L209.98 144.773C208.434 144.437 207.215 143.878 206.323 143.094C205.437 142.304 204.997 141.227 205.002 139.864C204.997 138.756 205.292 137.787 205.889 136.957C206.491 136.122 207.323 135.472 208.386 135.006C209.454 134.54 210.678 134.307 212.059 134.307C213.468 134.307 214.687 134.543 215.715 135.014C216.744 135.486 217.536 136.151 218.093 137.009C218.656 137.861 218.94 138.858 218.946 140H214.411Z" fill="white"/>
</svg>
