<svg width="512" height="448" viewBox="0 0 512 448" fill="none" xmlns="http://www.w3.org/2000/svg">
<path d="M506.265 385L292.965 21C276.635 -7 235.425 -7 218.985 21L5.78535 385C-10.6246 412.9 9.81435 448 42.7054 448H469.305C502.065 448 522.565 413 506.265 385ZM231.965 136C231.965 122.75 242.715 112 255.965 112C269.215 112 279.965 122.8 279.965 136V264C279.965 277.25 269.215 288 256.865 288C244.515 288 231.965 277.3 231.965 264V136ZM255.965 384C238.605 384 224.525 369.92 224.525 352.56C224.525 335.2 238.595 321.12 255.965 321.12C273.335 321.12 287.405 335.2 287.405 352.56C287.365 369.9 273.365 384 255.965 384Z" fill="#151342"/>
</svg>
